<svg width="21" height="22" viewBox="0 0 21 22" fill="none" xmlns="http://www.w3.org/2000/svg">
<path d="M10.0125 0C10.4811 0 10.9306 0.182988 11.2619 0.508709C11.5933 0.83443 11.7794 1.2762 11.7794 1.73684C11.7794 2.19748 11.5933 2.63925 11.2619 2.96498C10.9306 3.2907 10.4811 3.47368 10.0125 3.47368H4.1228C3.9666 3.47368 3.81679 3.53468 3.70634 3.64325C3.59588 3.75183 3.53383 3.89909 3.53383 4.05263V17.9474C3.53383 18.1009 3.59588 18.2482 3.70634 18.3567C3.81679 18.4653 3.9666 18.5263 4.1228 18.5263H9.42355C9.89216 18.5263 10.3416 18.7093 10.6729 19.035C11.0043 19.3607 11.1905 19.8025 11.1905 20.2632C11.1905 20.7238 11.0043 21.1656 10.6729 21.4913C10.3416 21.817 9.89216 22 9.42355 22H4.1228C3.02937 22 1.98072 21.573 1.20754 20.813C0.434366 20.053 0 19.0222 0 17.9474V4.05263C0 2.97781 0.434366 1.947 1.20754 1.18699C1.98072 0.426972 3.02937 0 4.1228 0H10.0125ZM17.1509 6.49579L20.4833 9.77263C20.8141 10.0983 21 10.5397 21 11C21 11.4603 20.8141 11.9017 20.4833 12.2274L17.152 15.5042C16.8206 15.83 16.371 16.0131 15.9022 16.0131C15.4335 16.0131 14.9839 15.83 14.6524 15.5042C14.321 15.1784 14.1348 14.7365 14.1348 14.2757C14.1348 13.8149 14.321 13.373 14.6524 13.0472L14.9681 12.7368H10.0125C9.5439 12.7368 9.09448 12.5539 8.76312 12.2281C8.43176 11.9024 8.2456 11.4606 8.2456 11C8.2456 10.5394 8.43176 10.0976 8.76312 9.77187C9.09448 9.44615 9.5439 9.26316 10.0125 9.26316H14.9681L14.6524 8.95284C14.4884 8.79151 14.3583 8.59999 14.2695 8.38923C14.1808 8.17847 14.1351 7.95259 14.1352 7.72449C14.1352 7.49638 14.181 7.27052 14.2698 7.0598C14.3587 6.84908 14.4889 6.65763 14.653 6.49637C14.8172 6.33511 15.012 6.20721 15.2264 6.11997C15.4408 6.03273 15.6706 5.98785 15.9027 5.98791C16.1347 5.98796 16.3645 6.03294 16.5788 6.12028C16.7932 6.20762 16.988 6.33562 17.152 6.49695L17.1509 6.49579Z" fill="#9D9D9D"/>
</svg>
