<svg width="25" height="30" viewBox="0 0 25 30" fill="none" xmlns="http://www.w3.org/2000/svg">
<path fill-rule="evenodd" clip-rule="evenodd" d="M0 2.37615C0 1.74596 0.219493 1.14158 0.610194 0.69596C1.0009 0.250344 1.5308 0 2.08333 0H22.9167C23.4692 0 23.9991 0.250344 24.3898 0.69596C24.7805 1.14158 25 1.74596 25 2.37615V5.68059C24.9998 6.52079 24.7071 7.3265 24.1861 7.92052L16.6667 16.4968V28.2572C16.6667 28.5543 16.6002 28.8464 16.4734 29.1059C16.3465 29.3654 16.1637 29.5835 15.9421 29.7397C15.7206 29.8959 15.4677 29.9849 15.2075 29.9982C14.9474 30.0116 14.6885 29.9489 14.4556 29.816L9.29306 26.8727C9.00468 26.7083 8.76215 26.4555 8.59264 26.1427C8.42313 25.8299 8.33334 25.4694 8.33333 25.1017V16.4968L0.813889 7.92052C0.292918 7.3265 0.000157326 6.52079 0 5.68059V2.37615ZM2.77778 3.16821V5.68059L10.5 14.4882C10.6937 14.7088 10.8473 14.9708 10.9522 15.2592C11.0571 15.5476 11.1111 15.8567 11.1111 16.1689V24.3667L13.8889 25.9508V16.1689C13.8889 15.5385 14.1083 14.9333 14.5 14.4898L22.2222 5.67901V3.16821H2.77778Z" fill="#7D7D7D"/>
</svg>
