<svg width="25" height="25" viewBox="0 0 25 25" fill="none" xmlns="http://www.w3.org/2000/svg">
<path fill-rule="evenodd" clip-rule="evenodd" d="M24.6747 2.03795C24.8888 1.80823 25.0054 1.50439 24.9998 1.19044C24.9943 0.876499 24.8671 0.576961 24.6451 0.354934C24.423 0.132908 24.1235 0.00572798 23.8095 0.000188797C23.4956 -0.00535038 23.1917 0.111183 22.962 0.32524L20.8776 2.40957C19.5577 1.49042 17.9565 1.06492 16.3545 1.20761C14.7524 1.35029 13.2517 2.05205 12.115 3.18998L11.1779 4.12713C10.8887 4.41778 10.7265 4.81105 10.7265 5.221C10.7265 5.63094 10.8887 6.02422 11.1779 6.31487L18.6849 13.8217C18.9756 14.1108 19.3689 14.2731 19.7788 14.2731C20.1888 14.2731 20.5821 14.1108 20.8727 13.8217L21.8099 12.8846C22.9481 11.7481 23.6502 10.2475 23.7932 8.64552C23.9362 7.04351 23.5109 5.44228 22.592 4.12228L24.6747 2.03795ZM10.9403 10.0198C11.1673 10.247 11.2947 10.555 11.2947 10.8762C11.2947 11.1973 11.1673 11.5053 10.9403 11.7325L8.92056 13.7522L11.2473 16.0789L13.2671 14.0592C13.4968 13.8452 13.8007 13.7286 14.1146 13.7342C14.4286 13.7397 14.7281 13.8669 14.9502 14.0889C15.1722 14.3109 15.2994 14.6105 15.3049 14.9244C15.3105 15.2384 15.1939 15.5422 14.9799 15.7719L12.9601 17.7916L13.8375 18.669C14.1266 18.9596 14.2889 19.3529 14.2889 19.7628C14.2889 20.1728 14.1266 20.5661 13.8375 20.8567L12.9003 21.7939C11.7639 22.932 10.2632 23.6341 8.66114 23.7771C7.05908 23.9201 5.45779 23.4948 4.13775 22.5759L2.05335 24.6602C1.82469 24.8809 1.51851 25.0029 1.20076 24.9999C0.883017 24.997 0.579126 24.8694 0.354542 24.6447C0.129958 24.4199 0.00265126 24.1159 4.09434e-05 23.7981C-0.00256937 23.4804 0.119726 23.1743 0.340586 22.9459L2.42499 20.8616C1.50581 19.5417 1.0803 17.9406 1.22298 16.3386C1.36567 14.7366 2.06746 13.2359 3.20542 12.0993L4.1426 11.1621C4.43326 10.8731 4.82655 10.7108 5.2365 10.7108C5.64646 10.7108 6.03975 10.8731 6.33041 11.1621L7.2078 12.0395L9.22756 10.0198C9.45479 9.79287 9.7628 9.66541 10.0839 9.66541C10.4051 9.66541 10.7131 9.79287 10.9403 10.0198ZM5.2365 13.4937L4.91819 13.812C4.1005 14.6459 3.64503 15.7689 3.65077 16.9367C3.65652 18.1046 4.12302 19.223 4.94887 20.0488C5.77473 20.8747 6.89317 21.3412 8.06109 21.3469C9.22901 21.3527 10.352 20.8972 11.1859 20.0795L11.5042 19.7612L5.2365 13.4937ZM20.0971 11.1686L19.7788 11.4869L13.5111 5.221L13.8294 4.90269C14.6633 4.08503 15.7863 3.62957 16.9542 3.63532C18.1222 3.64106 19.2406 4.10755 20.0665 4.93338C20.8923 5.7592 21.3588 6.87761 21.3646 8.04549C21.3703 9.21337 20.9148 10.3347 20.0971 11.1686Z" fill="black"/>
</svg>
