<svg width="160" height="160" viewBox="0 0 160 160" fill="none" xmlns="http://www.w3.org/2000/svg">
<path d="M120 70L160 90.0107V140.037L120 160L80 140.037V90.0107L120 70ZM150.048 91.9348L120 76.9268L108.413 82.6991L138.269 97.8033L150.048 91.9348ZM120 106.943L131.442 101.267L101.538 86.1625L89.9519 91.9348L120 106.943ZM86.1538 96.9375V136.189L116.923 151.582V112.33L86.1538 96.9375ZM123.077 151.582L153.846 136.189V96.9375L123.077 112.33V151.582Z" fill="#5A6091"/>
<path d="M40 70L80 90.0107V140.037L40 160L0 140.037V90.0107L40 70ZM70.0481 91.9348L40 76.9268L28.4135 82.6991L58.2692 97.8033L70.0481 91.9348ZM40 106.943L51.4423 101.267L21.5385 86.1625L9.95192 91.9348L40 106.943ZM6.15385 96.9375V136.189L36.9231 151.582V112.33L6.15385 96.9375ZM43.0769 151.582L73.8462 136.189V96.9375L43.0769 112.33V151.582Z" fill="#5A6091"/>
<path d="M80 0L120 20.0107V70.0374L80 90L40 70.0374V20.0107L80 0ZM110.048 21.9348L80 6.92678L68.4135 12.6991L98.2692 27.8033L110.048 21.9348ZM80 36.9428L91.4423 31.2667L61.5385 16.1625L49.9519 21.9348L80 36.9428ZM46.1538 26.9375V66.1892L76.9231 81.582V42.3303L46.1538 26.9375ZM83.0769 81.582L113.846 66.1892V26.9375L83.0769 42.3303V81.582Z" fill="#5A6091"/>
</svg>
