<svg width="240" height="229" viewBox="0 0 240 229" fill="none" xmlns="http://www.w3.org/2000/svg">
<path d="M200 139L240 159.011V209.037L200 229L160 209.037V159.011L200 139ZM230.048 160.935L200 145.927L188.413 151.699L218.269 166.803L230.048 160.935ZM200 175.943L211.442 170.267L181.538 155.162L169.952 160.935L200 175.943ZM166.154 165.937V205.189L196.923 220.582V181.33L166.154 165.937ZM203.077 220.582L233.846 205.189V165.937L203.077 181.33V220.582Z" fill="#5A6091"/>
<path d="M120 139L160 159.011V209.037L120 229L80 209.037V159.011L120 139ZM150.048 160.935L120 145.927L108.413 151.699L138.269 166.803L150.048 160.935ZM120 175.943L131.442 170.267L101.538 155.162L89.9519 160.935L120 175.943ZM86.1538 165.937V205.189L116.923 220.582V181.33L86.1538 165.937ZM123.077 220.582L153.846 205.189V165.937L123.077 181.33V220.582Z" fill="#5A6091"/>
<path d="M160 70L200 90.0107V140.037L160 160L120 140.037V90.0107L160 70ZM190.048 91.9348L160 76.9268L148.413 82.6991L178.269 97.8033L190.048 91.9348ZM160 106.943L171.442 101.267L141.538 86.1625L129.952 91.9348L160 106.943ZM126.154 96.9375V136.189L156.923 151.582V112.33L126.154 96.9375ZM163.077 151.582L193.846 136.189V96.9375L163.077 112.33V151.582Z" fill="#5A6091"/>
<path d="M40 139L80 159.011V209.037L40 229L0 209.037V159.011L40 139ZM70.0481 160.935L40 145.927L28.4135 151.699L58.2692 166.803L70.0481 160.935ZM40 175.943L51.4423 170.267L21.5385 155.162L9.95192 160.935L40 175.943ZM6.15385 165.937V205.189L36.9231 220.582V181.33L6.15385 165.937ZM43.0769 220.582L73.8462 205.189V165.937L43.0769 181.33V220.582Z" fill="#5A6091"/>
<path d="M80 70L120 90.0107V140.037L80 160L40 140.037V90.0107L80 70ZM110.048 91.9348L80 76.9268L68.4135 82.6991L98.2692 97.8033L110.048 91.9348ZM80 106.943L91.4423 101.267L61.5385 86.1625L49.9519 91.9348L80 106.943ZM46.1538 96.9375V136.189L76.9231 151.582V112.33L46.1538 96.9375ZM83.0769 151.582L113.846 136.189V96.9375L83.0769 112.33V151.582Z" fill="#5A6091"/>
<path d="M120 0L160 20.0107V70.0374L120 90L80 70.0374V20.0107L120 0ZM150.048 21.9348L120 6.92678L108.413 12.6991L138.269 27.8033L150.048 21.9348ZM120 36.9428L131.442 31.2667L101.538 16.1625L89.9519 21.9348L120 36.9428ZM86.1538 26.9375V66.1892L116.923 81.582V42.3303L86.1538 26.9375ZM123.077 81.582L153.846 66.1892V26.9375L123.077 42.3303V81.582Z" fill="#5A6091"/>
</svg>
